<?xml version="1.0" encoding="utf-8"?>
<!-- Generator: Adobe Illustrator 21.1.0, SVG Export Plug-In . SVG Version: 6.00 Build 0)  -->
<svg version="1.1" id="Layer_1" xmlns="http://www.w3.org/2000/svg" xmlns:xlink="http://www.w3.org/1999/xlink" x="0px" y="0px"
	 viewBox="0 0 78.5 64.1" style="enable-background:new 0 0 78.5 64.1;" xml:space="preserve">
<style type="text/css">
	.st0{fill:#231F20;}
</style>
<g>
	<path class="st0" d="M68.1,44.8H27.8c-2.9,0-5.5-2.1-6.1-5l-6.9-34c-0.2-1-1-1.7-2-1.7H2.1C0.9,4.1,0,3.2,0,2.1S0.9,0,2.1,0h10.7
		c2.9,0,5.5,2.1,6.1,5l6.9,34c0.2,1,1,1.7,2,1.7h40.3c1,0,1.9-0.8,2.1-1.8l4.2-30.1c0.2-1.1,1.2-1.9,2.3-1.8
		c1.1,0.2,1.9,1.2,1.8,2.3l-4.2,30.1C73.8,42.5,71.2,44.8,68.1,44.8z"/>
	<path class="st0" d="M30.8,64.1c-1.7,0-3.3-0.5-4.9-1.4c-0.9-0.5-1.6-1.3-2.1-2.1c-1.8-2.9-1.9-6.3-0.3-9c1.5-2.6,4.3-4.3,7.3-4.3
		c1.7,0,3.3,0.5,4.9,1.4c0.9,0.5,1.6,1.3,2.1,2.1c1.8,2.9,1.9,6.3,0.3,9C36.7,62.5,33.8,64.1,30.8,64.1z M30.8,51.4
		c-1.5,0-3,0.8-3.7,2.2c-0.8,1.4-0.7,3.2,0.3,4.8c0.2,0.3,0.4,0.5,0.7,0.7c0.9,0.5,1.8,0.8,2.7,0.8c1.5,0,3-0.8,3.7-2.2
		c0.8-1.4,0.7-3.2-0.3-4.8c-0.2-0.3-0.4-0.5-0.7-0.7C32.6,51.7,31.7,51.4,30.8,51.4z"/>
	<path class="st0" d="M64.8,64.1c-1.7,0-3.3-0.5-4.9-1.4c-0.9-0.5-1.6-1.3-2.1-2.1c-1.8-2.9-1.9-6.3-0.3-9c1.5-2.6,4.3-4.3,7.3-4.3
		c1.7,0,3.3,0.5,4.9,1.4c0.9,0.5,1.6,1.3,2.1,2.1c1.8,2.9,1.9,6.3,0.3,9C70.7,62.5,67.8,64.1,64.8,64.1z M64.8,51.4
		c-1.5,0-3,0.8-3.7,2.2c-0.8,1.4-0.7,3.2,0.3,4.8c0.2,0.3,0.4,0.5,0.7,0.7c0.9,0.5,1.8,0.8,2.7,0.8c1.5,0,3-0.8,3.7-2.2
		c0.8-1.4,0.7-3.2-0.3-4.8c-0.2-0.3-0.4-0.5-0.7-0.7C66.6,51.7,65.7,51.4,64.8,51.4z"/>
	<path class="st0" d="M75.6,17.7H19.2c-1.1,0-2.1-0.9-2.1-2.1s0.9-2.1,2.1-2.1h56.4c1.1,0,2.1,0.9,2.1,2.1S76.7,17.7,75.6,17.7z"/>
</g>
</svg>
